PathFileType	4	(X/Y/Z)	c:/Users/goper/Files/vsCode/490R/osim_files/C04/C04_Slow_01.trc
DataRate	CameraRate	NumFrames	NumMarkers	Units                	OrigDataRate	OrigDataStartFrame	OrigNumFrames
250.00	250.00	5	36	mm	250.0	2803	3203
                Frame#	Time	LPSIS			LASIS			LTH1			LTH2			LTH3			LTH4			LLFE			LMFE			LSH1			LSH2			LSH3			LSH4			LLMAL			LMMAL			LCAL			LMTP5			LTOE			LMTP1			RPSIS			RASIS			RTH1			RTH2			RTH3			RTH4			RLFE			RMFE			RSH1			RSH2			RSH3			RSH4			RLMAL			RMMAL			RCAL			RMTP1			RTOE			RMTP5		
		X1	Y1	Z1	X2	Y2	Z2	X3	Y3	Z3	X4	Y4	Z4	X5	Y5	Z5	X6	Y6	Z6	X7	Y7	Z7	X8	Y8	Z8	X9	Y9	Z9	X10	Y10	Z10	X11	Y11	Z11	X12	Y12	Z12	X13	Y13	Z13	X14	Y14	Z14	X15	Y15	Z15	X16	Y16	Z16	X17	Y17	Z17	X18	Y18	Z18	X19	Y19	Z19	X20	Y20	Z20	X21	Y21	Z21	X22	Y22	Z22	X23	Y23	Z23	X24	Y24	Z24	X25	Y25	Z25	X26	Y26	Z26	X27	Y27	Z27	X28	Y28	Z28	X29	Y29	Z29	X30	Y30	Z30	X31	Y31	Z31	X32	Y32	Z32	X33	Y33	Z33	X34	Y34	Z34	X35	Y35	Z35	X36	Y36	Z36

2803	11.20800	-2484.16260	970.14178	238.84027	0.00000	0.00000	0.00000	0.00000	0.00000	0.00000	-5142.06641	1648.78540	377.60580	0.00000	0.00000	0.00000	0.00000	0.00000	0.00000	0.00000	0.00000	0.00000	-2547.50586	447.25873	322.82327	-2469.88354	356.37115	331.87189	-2452.58960	311.85599	327.42392	0.00000	0.00000	0.00000	0.00000	0.00000	0.00000	-2434.78613	71.07366	292.88351	-2417.92993	96.67313	204.82846	-2351.53687	57.03811	253.74109	-2555.87061	15.30384	296.06610	-2574.36304	38.09036	245.07158	-2539.98413	12.16584	196.64220	-2484.22534	970.70007	164.45001	0.00000	0.00000	0.00000	-2597.75806	716.13507	23.02761	-2623.27222	659.90521	31.43412	0.00000	0.00000	0.00000	-2698.14673	691.98474	31.59135	-2771.46558	484.90628	63.12450	0.00000	0.00000	0.00000	-2709.83765	354.09302	46.26316	0.00000	0.00000	0.00000	0.00000	0.00000	0.00000	0.00000	0.00000	0.00000	-2759.57935	89.50791	61.84011	0.00000	0.00000	0.00000	-2717.64624	45.24104	115.91598	0.00000	0.00000	0.00000	-2931.36255	97.80025	91.27113	-2904.64111	58.11330	34.55582
2804	11.21200	-2486.70996	969.65356	237.96567	0.00000	0.00000	0.00000	0.00000	0.00000	0.00000	-5140.07812	1647.47351	377.46796	0.00000	0.00000	0.00000	0.00000	0.00000	0.00000	0.00000	0.00000	0.00000	-2549.16626	447.27966	322.60574	-2469.18726	357.39191	330.54483	-2453.77515	312.10977	327.25046	0.00000	0.00000	0.00000	0.00000	0.00000	0.00000	-2434.90723	71.50900	292.91580	-2418.09741	97.00254	204.72821	-2351.70483	57.62342	253.65025	-2555.91260	15.38466	296.05692	-2574.41333	38.11849	245.02335	-2540.03662	12.16473	196.67485	-2488.51465	969.97327	163.80316	0.00000	0.00000	0.00000	-2601.16211	715.69305	22.75731	-2626.45361	659.44543	31.14636	0.00000	0.00000	0.00000	-2701.34082	691.35760	31.18263	-2765.03955	487.45871	61.45300	0.00000	0.00000	0.00000	-2714.89600	352.70450	45.98576	0.00000	0.00000	0.00000	0.00000	0.00000	0.00000	0.00000	0.00000	0.00000	-2769.56470	88.88745	61.02916	0.00000	0.00000	0.00000	-2728.03784	44.14902	114.58361	0.00000	0.00000	0.00000	-2940.76099	100.17287	91.01303	-2907.90405	62.63178	32.68975
2805	11.21600	-2489.93872	969.38257	237.38107	0.00000	0.00000	0.00000	0.00000	0.00000	0.00000	-5138.18848	1646.20813	377.31894	0.00000	0.00000	0.00000	0.00000	0.00000	0.00000	0.00000	0.00000	0.00000	-2550.71045	447.26715	322.43518	-2470.52539	357.55179	330.32980	-2454.93945	312.45071	327.05643	0.00000	0.00000	0.00000	0.00000	0.00000	0.00000	-2435.04736	71.88402	292.80518	-2418.45703	97.24451	204.63306	-2351.71533	58.26863	253.62543	-2555.81079	15.52560	296.07935	-2574.42017	38.10427	245.01733	-2540.03662	12.16126	196.69666	-2491.34912	969.66699	163.17766	0.00000	0.00000	0.00000	-2604.05640	715.32703	22.24228	-2629.31567	659.04840	30.74462	0.00000	0.00000	0.00000	-2704.46753	690.72638	30.84352	-2777.24097	483.60672	63.24360	0.00000	0.00000	0.00000	-2719.86548	351.30328	45.63799	0.00000	0.00000	0.00000	0.00000	0.00000	0.00000	0.00000	0.00000	0.00000	-2779.14990	88.39642	60.16998	0.00000	0.00000	0.00000	-2738.23682	42.69481	113.38415	0.00000	0.00000	0.00000	-2949.82446	102.53994	90.76435	-2917.88403	64.70258	32.20246
2806	11.22000	-2492.41211	969.39648	237.08517	0.00000	0.00000	0.00000	0.00000	0.00000	0.00000	-5136.27441	1644.91711	377.17853	0.00000	0.00000	0.00000	0.00000	0.00000	0.00000	0.00000	0.00000	0.00000	-2552.53345	447.17166	322.19586	-2474.08887	357.05853	331.12427	-2456.14185	312.79239	326.80942	0.00000	0.00000	0.00000	0.00000	0.00000	0.00000	-2435.16284	72.32479	292.72327	-2418.70508	97.58081	204.50368	-2351.81201	58.84281	253.54793	-2555.87769	15.54382	296.05881	-2574.42432	38.01937	245.09671	-2540.09351	12.13880	196.71884	-2494.64868	969.34918	162.67300	0.00000	0.00000	0.00000	-2607.49097	714.93744	21.91840	-2632.81201	658.39740	30.87120	0.00000	0.00000	0.00000	-2707.60229	690.16998	30.43562	-2780.03345	482.94531	63.26706	0.00000	0.00000	0.00000	-2724.79443	349.94315	45.28995	0.00000	0.00000	0.00000	0.00000	0.00000	0.00000	0.00000	0.00000	0.00000	-2788.75757	88.02843	59.44283	0.00000	0.00000	0.00000	-2747.86865	41.08381	112.38023	0.00000	0.00000	0.00000	-2958.55981	104.77891	90.52695	-2935.00146	64.38360	31.77191
2807	11.22400	-2495.63770	968.97296	236.45064	0.00000	0.00000	0.00000	0.00000	0.00000	0.00000	-5134.12842	1643.47961	377.04465	0.00000	0.00000	0.00000	0.00000	0.00000	0.00000	0.00000	0.00000	0.00000	-2554.35645	447.06915	322.04065	-2475.63818	357.25174	330.97083	-2457.44360	313.12454	326.67093	0.00000	0.00000	0.00000	0.00000	0.00000	0.00000	-2435.22534	72.80386	292.79846	-2419.01782	97.89639	204.44176	-2351.97363	59.42069	253.53961	-2555.68945	15.72907	296.11713	-2574.50928	38.00543	245.09885	-2540.10791	12.13775	196.68414	-2497.98779	968.93329	162.07849	0.00000	0.00000	0.00000	-2610.56152	714.62708	21.48603	-2635.62866	658.10956	30.06054	0.00000	0.00000	0.00000	0.00000	0.00000	0.00000	-2773.79956	485.40152	61.52484	0.00000	0.00000	0.00000	-2729.99146	348.51251	44.90975	0.00000	0.00000	0.00000	0.00000	0.00000	0.00000	0.00000	0.00000	0.00000	-2797.86719	87.75117	58.71943	0.00000	0.00000	0.00000	-2757.53369	39.84517	111.31952	-2953.47388	49.77514	143.64786	0.00000	0.00000	0.00000	0.00000	0.00000	0.00000
